<svg width="20" height="20" viewBox="0 0 20 20" fill="none" xmlns="http://www.w3.org/2000/svg">
<path d="M17.9898 4.9C17.8899 4.4 17.4904 4 16.991 4H13.9949C13.9949 1.8 12.1972 0 10 0C7.80281 0 6.00512 1.8 6.00512 4H3.00895C2.50959 4 2.1101 4.4 2.01023 4.9L0.0127892 18.9C-0.0870829 19.5 0.412278 20 1.01151 20H18.9885C19.5877 20 20.0871 19.5 19.9872 18.9L17.9898 4.9ZM10 2C11.0986 2 11.9974 2.9 11.9974 4H8.00256C8.00256 2.9 8.90141 2 10 2ZM2.20998 18L3.9078 6H6.00512V7C6.00512 8.3 8.00256 8.3 8.00256 7V6H11.9974V7C11.9974 8.3 13.9949 8.3 13.9949 7V6H16.0922L17.79 18H2.20998Z" fill="#1B2E59"/>
</svg>
