<svg width="20" height="20" viewBox="0 0 20 20" fill="none" xmlns="http://www.w3.org/2000/svg">
<path d="M19.7072 18.293L14.3651 12.9509C15.6143 11.3411 16.203 9.31564 16.0114 7.287C15.8197 5.25836 14.8621 3.37901 13.3336 2.03158C11.805 0.68414 9.82038 -0.0300859 7.78373 0.0343085C5.74708 0.0987029 3.81152 0.936876 2.37113 2.37819C0.93074 3.81949 0.0937985 5.75558 0.0307004 7.79227C-0.0323977 9.82896 0.683091 11.8131 2.0315 13.3409C3.37991 14.8686 5.25987 15.8249 7.28863 16.0153C9.31739 16.2056 11.3424 15.6156 12.9515 14.3654L18.2932 19.707C18.4818 19.8892 18.7344 19.9899 18.9966 19.9877C19.2588 19.9854 19.5096 19.8802 19.695 19.6948C19.8804 19.5094 19.9856 19.2586 19.9878 18.9964C19.9901 18.7342 19.8893 18.4816 19.7072 18.293ZM3.80777 12.293C2.82612 11.3115 2.21516 10.02 2.07899 8.63855C1.94282 7.2571 2.28987 5.87117 3.06101 4.71691C3.83214 3.56266 4.97965 2.71149 6.308 2.30846C7.63635 1.90542 9.06335 1.97544 10.3459 2.5066C11.6284 3.03775 12.687 3.99717 13.3415 5.22138C13.9959 6.44559 14.2056 7.85884 13.9348 9.22032C13.664 10.5818 12.9296 11.8073 11.8565 12.6879C10.7835 13.5686 9.43832 14.05 8.05017 14.05C6.45918 14.0491 4.93349 13.4173 3.80777 12.293Z" fill="#1B2E59"/>
</svg>
